<?xml version="1.0" encoding="utf-8"?>
<!-- Generator: Adobe Illustrator 18.1.1, SVG Export Plug-In . SVG Version: 6.00 Build 0)  -->
<svg version="1.1" id="Layer_1" xmlns="http://www.w3.org/2000/svg" xmlns:xlink="http://www.w3.org/1999/xlink" x="0px" y="0px"
	 viewBox="0 0 100 100" enable-background="new 0 0 100 100" xml:space="preserve">
<rect x="24.8" y="24.8" fill="#8972AD" width="50.5" height="50.5"/>
<g>
	<path fill="#FFFFFF" d="M29.7,44.8H32v-6.8l-2.1,0.5v-1.9l2.2-0.5h2v8.6h2.3v1.8h-6.6V44.8z"/>
	<path fill="#FFFFFF" d="M37.9,41.4c0-1.8,0.3-3.2,0.9-4.1c0.6-0.9,1.4-1.3,2.6-1.3c1.2,0,2,0.4,2.6,1.3c0.6,0.9,0.9,2.2,0.9,4.1
		c0,1.8-0.3,3.2-0.9,4.1c-0.6,0.9-1.4,1.3-2.6,1.3c-1.1,0-2-0.4-2.6-1.3C38.2,44.6,37.9,43.2,37.9,41.4z M41.3,37.8
		c-0.5,0-0.8,0.3-1,0.9c-0.2,0.6-0.3,1.5-0.3,2.8c0,0.4,0,0.8,0,1.1l2.4-3.8c0,0,0,0,0,0C42.1,38.1,41.8,37.8,41.3,37.8z M40.3,44.2
		c0.2,0.6,0.6,0.9,1,0.9c0.5,0,0.8-0.3,1-0.9c0.2-0.6,0.3-1.5,0.3-2.8c0-0.5,0-0.9,0-1.3L40.2,44C40.2,44.1,40.2,44.2,40.3,44.2z"/>
	<path fill="#FFFFFF" d="M46.9,44.8h2.3v-6.8l-2.1,0.5v-1.9l2.2-0.5h2v8.6h2.3v1.8h-6.6V44.8z"/>
	<path fill="#FFFFFF" d="M55.1,41.4c0-1.8,0.3-3.2,0.9-4.1c0.6-0.9,1.4-1.3,2.6-1.3c1.2,0,2,0.4,2.6,1.3c0.6,0.9,0.9,2.2,0.9,4.1
		c0,1.8-0.3,3.2-0.9,4.1c-0.6,0.9-1.4,1.3-2.6,1.3c-1.1,0-2-0.4-2.6-1.3C55.4,44.6,55.1,43.2,55.1,41.4z M58.5,37.8
		c-0.5,0-0.8,0.3-1,0.9c-0.2,0.6-0.3,1.5-0.3,2.8c0,0.4,0,0.8,0,1.1l2.4-3.8c0,0,0,0,0,0C59.3,38.1,59,37.8,58.5,37.8z M57.5,44.2
		c0.2,0.6,0.6,0.9,1,0.9c0.5,0,0.8-0.3,1-0.9c0.2-0.6,0.3-1.5,0.3-2.8c0-0.5,0-0.9,0-1.3L57.4,44C57.4,44.1,57.4,44.2,57.5,44.2z"/>
	<path fill="#FFFFFF" d="M63.7,41.4c0-1.8,0.3-3.2,0.9-4.1c0.6-0.9,1.4-1.3,2.6-1.3c1.2,0,2,0.4,2.6,1.3c0.6,0.9,0.9,2.2,0.9,4.1
		c0,1.8-0.3,3.2-0.9,4.1c-0.6,0.9-1.4,1.3-2.6,1.3c-1.1,0-2-0.4-2.6-1.3C64,44.6,63.7,43.2,63.7,41.4z M67.1,37.8
		c-0.5,0-0.8,0.3-1,0.9c-0.2,0.6-0.3,1.5-0.3,2.8c0,0.4,0,0.8,0,1.1l2.4-3.8c0,0,0,0,0,0C67.9,38.1,67.6,37.8,67.1,37.8z M66.1,44.2
		c0.2,0.6,0.6,0.9,1,0.9c0.5,0,0.8-0.3,1-0.9c0.2-0.6,0.3-1.5,0.3-2.8c0-0.5,0-0.9,0-1.3L66,44C66,44.1,66,44.2,66.1,44.2z"/>
	<path fill="#FFFFFF" d="M29.3,58.6c0-1.8,0.3-3.2,0.9-4.1c0.6-0.9,1.4-1.3,2.6-1.3c1.2,0,2,0.4,2.6,1.3c0.6,0.9,0.9,2.2,0.9,4.1
		c0,1.8-0.3,3.2-0.9,4.1c-0.6,0.9-1.4,1.3-2.6,1.3c-1.1,0-2-0.4-2.6-1.3C29.6,61.7,29.3,60.4,29.3,58.6z M32.7,54.9
		c-0.5,0-0.8,0.3-1,0.9c-0.2,0.6-0.3,1.5-0.3,2.8c0,0.4,0,0.8,0,1.1l2.4-3.8c0,0,0,0,0,0C33.5,55.2,33.2,54.9,32.7,54.9z M31.7,61.4
		c0.2,0.6,0.6,0.9,1,0.9c0.5,0,0.8-0.3,1-0.9c0.2-0.6,0.3-1.5,0.3-2.8c0-0.5,0-0.9,0-1.3l-2.4,3.9C31.6,61.2,31.7,61.3,31.7,61.4z"
		/>
	<path fill="#FFFFFF" d="M37.9,58.6c0-1.8,0.3-3.2,0.9-4.1c0.6-0.9,1.4-1.3,2.6-1.3c1.2,0,2,0.4,2.6,1.3c0.6,0.9,0.9,2.2,0.9,4.1
		c0,1.8-0.3,3.2-0.9,4.1c-0.6,0.9-1.4,1.3-2.6,1.3c-1.1,0-2-0.4-2.6-1.3C38.2,61.7,37.9,60.4,37.9,58.6z M41.3,54.9
		c-0.5,0-0.8,0.3-1,0.9c-0.2,0.6-0.3,1.5-0.3,2.8c0,0.4,0,0.8,0,1.1l2.4-3.8c0,0,0,0,0,0C42.1,55.2,41.8,54.9,41.3,54.9z M40.3,61.4
		c0.2,0.6,0.6,0.9,1,0.9c0.5,0,0.8-0.3,1-0.9c0.2-0.6,0.3-1.5,0.3-2.8c0-0.5,0-0.9,0-1.3l-2.4,3.9C40.2,61.2,40.2,61.3,40.3,61.4z"
		/>
	<path fill="#FFFFFF" d="M46.5,58.6c0-1.8,0.3-3.2,0.9-4.1c0.6-0.9,1.4-1.3,2.6-1.3c1.2,0,2,0.4,2.6,1.3c0.6,0.9,0.9,2.2,0.9,4.1
		c0,1.8-0.3,3.2-0.9,4.1c-0.6,0.9-1.4,1.3-2.6,1.3c-1.1,0-2-0.4-2.6-1.3C46.8,61.7,46.5,60.4,46.5,58.6z M49.9,54.9
		c-0.5,0-0.8,0.3-1,0.9c-0.2,0.6-0.3,1.5-0.3,2.8c0,0.4,0,0.8,0,1.1l2.4-3.8c0,0,0,0,0,0C50.7,55.2,50.4,54.9,49.9,54.9z M48.9,61.4
		c0.2,0.6,0.6,0.9,1,0.9c0.5,0,0.8-0.3,1-0.9c0.2-0.6,0.3-1.5,0.3-2.8c0-0.5,0-0.9,0-1.3l-2.4,3.9C48.8,61.2,48.8,61.3,48.9,61.4z"
		/>
	<path fill="#FFFFFF" d="M55.5,62h2.3v-6.8l-2.1,0.5v-1.9l2.2-0.5h2V62h2.3v1.8h-6.6V62z"/>
	<path fill="#FFFFFF" d="M64.1,62h2.3v-6.8l-2.1,0.5v-1.9l2.2-0.5h2V62h2.3v1.8h-6.6V62z"/>
</g>
</svg>
