<?xml version="1.0" encoding="utf-8"?>
<!-- Generator: Adobe Illustrator 18.1.1, SVG Export Plug-In . SVG Version: 6.00 Build 0)  -->
<svg version="1.1" id="Layer_1" xmlns="http://www.w3.org/2000/svg" xmlns:xlink="http://www.w3.org/1999/xlink" x="0px" y="0px"
	 viewBox="0 0 100 100" enable-background="new 0 0 100 100" xml:space="preserve">
<g>
	<path fill="#8972AD" d="M88.6,43.4l-10.3-1c-0.7-2.5-1.6-4.8-2.9-7.1l6.6-8c0.7-0.9,0.6-2.1-0.1-2.9l-6.2-6.2
		c-0.4-0.4-1-0.6-1.5-0.6c-0.5,0-1,0.2-1.4,0.5l-8,6.6c-2.2-1.3-4.6-2.3-7.1-2.9l-1-10.3c-0.1-1.1-1-1.9-2.1-1.9h-8.8
		c-1.1,0-2,0.8-2.1,1.9l-1,10.3c-2.5,0.7-4.8,1.6-7.1,2.9l-8-6.6c-0.4-0.3-0.9-0.5-1.4-0.5c-0.6,0-1.1,0.2-1.5,0.6l-6.2,6.2
		c-0.8,0.8-0.8,2-0.1,2.9l6.6,8c-1.3,2.2-2.3,4.6-2.9,7.1l-10.3,1c-1.1,0.1-1.9,1-1.9,2.1v8.8c0,1.1,0.8,2,1.9,2.1l10.3,1
		c0.7,2.5,1.6,4.8,2.9,7.1l-6.6,8c-0.7,0.9-0.6,2.1,0.1,2.9l6.2,6.2c0.4,0.4,1,0.6,1.5,0.6c0.5,0,1-0.2,1.4-0.5l8-6.6
		c2.2,1.3,4.6,2.3,7.1,2.9l1,10.3c0.1,1.1,1,1.9,2.1,1.9h8.8c1.1,0,2-0.8,2.1-1.9l1-10.3c2.5-0.7,4.8-1.6,7.1-2.9l8,6.6
		c0.4,0.3,0.9,0.5,1.4,0.5c0.6,0,1.1-0.2,1.5-0.6l6.2-6.2c0.8-0.8,0.8-2,0.1-2.9l-6.6-8c1.3-2.2,2.3-4.6,2.9-7.1l10.3-1
		c1.1-0.1,1.9-1,1.9-2.1v-8.8C90.5,44.5,89.7,43.5,88.6,43.4z M50,62c-6.6,0-12-5.4-12-12c0-6.6,5.4-12,12-12C56.6,38,62,43.4,62,50
		C62,56.6,56.6,62,50,62z"/>
</g>
</svg>
