<?xml version="1.0" encoding="utf-8"?>
<!-- Generator: Adobe Illustrator 18.1.1, SVG Export Plug-In . SVG Version: 6.00 Build 0)  -->
<svg version="1.1" id="Layer_1" xmlns="http://www.w3.org/2000/svg" xmlns:xlink="http://www.w3.org/1999/xlink" x="0px" y="0px"
	 viewBox="0 0 22 22" enable-background="new 0 0 22 22" xml:space="preserve">
<path fill-rule="evenodd" clip-rule="evenodd" fill="#8972AD" d="M3.8,2.8c2.4-2.2,6.1-2,8.2,0.4c1.6,1.8,1.9,4.3,0.9,6.4l1.4,1.6
	l1.1,0.1l1.1,0.1l0,1.1l0,1.1l1.1,0.1l1.1,0.1l0,1.1l0,1.1l1.4,1.6l-0.5,2.7l-2.7,0.3l-7.1-7.8C7.5,13.3,5,12.8,3.4,11
	C1.2,8.6,1.4,4.9,3.8,2.8L3.8,2.8z M4.8,4c0.7-0.6,1.7-0.5,2.2,0.1C7.7,4.7,7.6,5.7,7,6.3C6.3,6.9,5.3,6.9,4.7,6.2
	C4.1,5.6,4.2,4.6,4.8,4L4.8,4z"/>
</svg>
