<?xml version="1.0" encoding="utf-8"?>
<!-- Generator: Adobe Illustrator 18.1.1, SVG Export Plug-In . SVG Version: 6.00 Build 0)  -->
<svg version="1.1" id="Layer_1" xmlns="http://www.w3.org/2000/svg" xmlns:xlink="http://www.w3.org/1999/xlink" x="0px" y="0px"
	 viewBox="0 0 100 100" enable-background="new 0 0 100 100" xml:space="preserve">
<path fill="#8972AD" d="M82.1,44.2h-3.7h-5.1v-8.4c0,0,0-0.1,0-0.1C73.2,22.6,62.6,12,49.5,12c-13.1,0-23.7,10.6-23.7,23.7v8.5h-4.2
	h-3.7c-1.4,0-2.6,1.2-2.6,2.6v38.6c0,1.4,1.2,2.6,2.6,2.6h64.2c1.4,0,2.6-1.2,2.6-2.6V46.8C84.7,45.4,83.6,44.2,82.1,44.2z
	 M39.8,35.7c0-5.4,4.4-9.7,9.7-9.7c5.3,0,9.7,4.3,9.7,9.6c0,0,0,0,0,0h0c0,0,0,0,0,0.1v8.5H39.8V35.7z"/>
</svg>
