<?xml version="1.0" encoding="utf-8"?>
<!-- Generator: Adobe Illustrator 18.1.1, SVG Export Plug-In . SVG Version: 6.00 Build 0)  -->
<svg version="1.1" id="Layer_1" xmlns="http://www.w3.org/2000/svg" xmlns:xlink="http://www.w3.org/1999/xlink" x="0px" y="0px"
	 viewBox="0 0 100 100" enable-background="new 0 0 100 100" xml:space="preserve">
<g>
	<defs>
		<rect id="SVGID_1_" x="14.9" y="22.8" width="70.2" height="54.3"/>
	</defs>
	<clipPath id="SVGID_2_">
		<use xlink:href="#SVGID_1_"  overflow="visible"/>
	</clipPath>
	<path clip-path="url(#SVGID_2_)" fill="#FFFFFF" d="M82.7,22.8H17.3c-1.3,0-2.3,1-2.3,2.3v4.7c0,0.2,0.2,0.5,0.4,0.6l34.4,19.7
		c0.1,0.1,0.2,0.1,0.3,0.1s0.2,0,0.3-0.1l33.4-19.6c0.2-0.1,0.7-0.4,0.9-0.5c0.2-0.2,0.5-0.3,0.5-0.6v-4.2
		C85.1,23.9,84,22.8,82.7,22.8"/>
	<path clip-path="url(#SVGID_2_)" fill="#FFFFFF" d="M84.8,36.9c-0.2-0.1-0.4-0.1-0.6,0L65.3,48c-0.2,0.1-0.3,0.2-0.3,0.4
		c0,0.2,0,0.4,0.1,0.5l18.9,20.4c0.1,0.1,0.3,0.2,0.4,0.2c0.1,0,0.1,0,0.2,0c0.2-0.1,0.4-0.3,0.4-0.5V37.4
		C85.1,37.2,85,37,84.8,36.9"/>
	<path clip-path="url(#SVGID_2_)" fill="#FFFFFF" d="M59.9,51.8c-0.2-0.2-0.5-0.2-0.7-0.1l-7.6,4.5c-0.9,0.5-2,0.5-2.9,0L42,52.3
		c-0.2-0.1-0.5-0.1-0.7,0.1L16,75.9c-0.1,0.1-0.2,0.3-0.2,0.5c0,0.2,0.1,0.3,0.3,0.4c0.4,0.2,0.8,0.3,1.2,0.3h64.8
		c0.2,0,0.4-0.1,0.5-0.4c0.1-0.2,0.1-0.5-0.1-0.6L59.9,51.8z"/>
	<path clip-path="url(#SVGID_2_)" fill="#FFFFFF" d="M35.7,49.6c0.1-0.1,0.2-0.3,0.2-0.5c0-0.2-0.1-0.4-0.3-0.4L15.8,37.4
		c-0.2-0.1-0.4-0.1-0.6,0c-0.2,0.1-0.3,0.3-0.3,0.5v29.7c0,0.2,0.1,0.4,0.4,0.5c0.1,0,0.2,0.1,0.2,0.1c0.1,0,0.3-0.1,0.4-0.2
		L35.7,49.6z"/>
</g>
</svg>
