<?xml version="1.0" encoding="utf-8"?>
<!-- Generator: Adobe Illustrator 18.1.1, SVG Export Plug-In . SVG Version: 6.00 Build 0)  -->
<svg version="1.1" id="Layer_1" xmlns="http://www.w3.org/2000/svg" xmlns:xlink="http://www.w3.org/1999/xlink" x="0px" y="0px"
	 viewBox="0 0 100 100" enable-background="new 0 0 100 100" xml:space="preserve">
<path fill="#FFFFFF" d="M93,72.7c-0.2-1.2-0.9-2.1-2-2.7l-16.1-9.5l-0.1-0.1c-0.7-0.3-1.4-0.5-2.2-0.5c-1.3,0-2.6,0.5-3.5,1.4
	l-4.7,4.7c-0.2,0.2-0.9,0.5-1.1,0.5c-0.1,0-5.5-0.4-15.6-10.5c-10-10-10.5-15.5-10.5-15.5c0-0.3,0.3-0.9,0.5-1.1l4-4
	c1.4-1.4,1.9-3.8,1-5.6l-8.9-16.8c-0.6-1.3-1.9-2.2-3.3-2.2c-1,0-1.9,0.4-2.7,1.2l-11,11c-1.1,1.1-2,2.9-2.2,4.4
	C14.5,28,12.6,44.9,35.7,68c19.7,19.7,35,21.2,39.2,21.2c0.9,0,1.4-0.1,1.5-0.1C78,89,79.8,88,80.8,87l11-11
	C92.8,75.1,93.2,73.9,93,72.7"/>
</svg>
