<?xml version="1.0" encoding="utf-8"?>
<!-- Generator: Adobe Illustrator 18.1.1, SVG Export Plug-In . SVG Version: 6.00 Build 0)  -->
<svg version="1.1" id="Layer_1" xmlns="http://www.w3.org/2000/svg" xmlns:xlink="http://www.w3.org/1999/xlink" x="0px" y="0px"
	 viewBox="0 0 100 100" enable-background="new 0 0 100 100" xml:space="preserve">
<g>
	<path fill="#8972AD" d="M79.1,45.1l-7.8-0.8c-0.5-1.9-1.2-3.6-2.2-5.3l5-6c0.5-0.6,0.5-1.6-0.1-2.2L69.3,26
		c-0.3-0.3-0.7-0.5-1.2-0.5c-0.4,0-0.7,0.1-1,0.4l-6,5c-1.7-1-3.5-1.7-5.3-2.2l-0.8-7.8c-0.1-0.8-0.8-1.5-1.6-1.5h-6.7
		c-0.8,0-1.5,0.6-1.6,1.5l-0.8,7.8c-1.9,0.5-3.6,1.2-5.3,2.2l-6-5c-0.3-0.2-0.7-0.4-1-0.4c-0.4,0-0.8,0.2-1.2,0.5L26,30.7
		c-0.6,0.6-0.6,1.5-0.1,2.2l5,6c-1,1.7-1.7,3.5-2.2,5.3l-7.8,0.8c-0.8,0.1-1.5,0.8-1.5,1.6v6.7c0,0.8,0.6,1.5,1.5,1.6l7.8,0.8
		c0.5,1.9,1.2,3.6,2.2,5.3l-5,6c-0.5,0.6-0.5,1.6,0.1,2.2l4.7,4.7c0.3,0.3,0.7,0.5,1.2,0.5c0.4,0,0.7-0.1,1-0.4l6-5
		c1.7,1,3.5,1.7,5.3,2.2l0.8,7.8c0.1,0.8,0.8,1.5,1.6,1.5h6.7c0.8,0,1.5-0.6,1.6-1.5l0.8-7.8c1.9-0.5,3.6-1.2,5.3-2.2l6,5
		c0.3,0.2,0.7,0.4,1,0.4c0.4,0,0.8-0.2,1.2-0.5l4.7-4.7c0.6-0.6,0.6-1.5,0.1-2.2l-4.9-6c1-1.7,1.7-3.5,2.2-5.3l7.8-0.8
		c0.8-0.1,1.5-0.8,1.5-1.6v-6.7C80.6,45.8,79.9,45.1,79.1,45.1z M50,59c-5,0-9-4-9-9c0-5,4-9,9-9c5,0,9,4,9,9C59,55,55,59,50,59z"/>
</g>
<path fill="#8972AD" d="M90,72.1l-16.7,6.8l3.3,3c-3.4,3.3-7.4,6-11.9,7.8c-18.9,7.7-40.5-1.5-48.2-20.4L10,72
	c9.1,22.5,34.8,33.3,57.3,24.2c5.5-2.2,10.3-5.4,14.5-9.6l4.3,3.8L90,72.1z"/>
<path fill="#8972AD" d="M10.5,30l16.1-8l-3.5-2.7c3.2-3.6,7-6.5,11.3-8.6C52.7,1.6,74.9,9.1,84,27.4l6.3-3.1
	C79.5,2.6,53-6.4,31.3,4.4C26,7,21.4,10.6,17.6,15L13,11.5L10.5,30z"/>
</svg>
