<?xml version="1.0" encoding="utf-8"?>
<!-- Generator: Adobe Illustrator 18.1.1, SVG Export Plug-In . SVG Version: 6.00 Build 0)  -->
<svg version="1.1" id="Layer_1" xmlns="http://www.w3.org/2000/svg" xmlns:xlink="http://www.w3.org/1999/xlink" x="0px" y="0px"
	 viewBox="0 0 100 100" enable-background="new 0 0 100 100" xml:space="preserve">
<path fill="#8972AD" d="M69.5,46.2c0-8.8-7.2-16-16-16c-8.9,0-16,7.2-16,16c0,3,0.8,5.8,2.3,8.2l-7.8,7.8l0,0
	c-0.8,0.8-1.3,1.9-1.3,3.2c0,2.5,2,4.4,4.4,4.4c1.3,0,2.4-0.5,3.2-1.3l0,0l8-8c2.2,1.1,4.6,1.7,7.2,1.7
	C62.3,62.2,69.5,55.1,69.5,46.2z M44.1,46.2c0-5.1,4.2-9.3,9.3-9.3c5.1,0,9.3,4.2,9.3,9.3c0,5.1-4.2,9.3-9.3,9.3
	C48.3,55.5,44.1,51.3,44.1,46.2z"/>
</svg>
